<svg xmlns="http://www.w3.org/2000/svg" width="63" height="47" viewBox="0 0 63 47">
  <g id="Group_15" data-name="Group 15" transform="translate(-390 -668)">
    <g id="Polygon_1" data-name="Polygon 1" transform="translate(453 715) rotate(180)" fill="none">
      <path d="M25.685,8.676a7,7,0,0,1,11.63,0L55.7,36.1A7,7,0,0,1,49.882,47H13.118A7,7,0,0,1,7.3,36.1Z" stroke="none"/>
      <path d="M 31.49998664855957 9.573238372802734 C 31.0186653137207 9.573238372802734 29.81232070922852 9.702816009521484 29.00793075561523 10.90303802490234 L 10.62617492675781 38.32979202270508 C 9.721908569335938 39.67900466918945 10.21675491333008 40.93497085571289 10.47147750854492 41.41233825683594 C 10.7262077331543 41.88970184326172 11.4940185546875 43.00000381469727 13.11823272705078 43.00000381469727 L 49.88176345825195 42.99999237060547 C 51.50565338134766 42.99999237060547 52.27350997924805 41.88956069946289 52.52826690673828 41.41213607788086 C 52.78300857543945 40.93474960327148 53.27790832519531 39.67873764038086 52.37382125854492 38.32979202270508 L 33.9920539855957 10.90302658081055 C 33.18765258789063 9.702816009521484 31.98130989074707 9.573238372802734 31.49998664855957 9.573238372802734 M 31.49999237060547 5.573238372802734 C 33.71421432495117 5.573238372802734 35.92843627929688 6.607521057128906 37.31481170654297 8.676082611083984 L 55.69657516479492 36.10283660888672 C 58.81336212158203 40.75327682495117 55.47979354858398 46.99999237060547 49.88176727294922 46.99999237060547 C 49.88142776489258 46.99999237060547 49.88209533691406 46.99999237060547 49.88175201416016 46.99999237060547 L 13.11823272705078 47.00000381469727 C 7.519588470458984 47.00000381469727 4.186443328857422 40.75355911254883 7.303421020507813 36.10283660888672 L 25.68517684936523 8.676082611083984 C 27.07154846191406 6.607521057128906 29.28577041625977 5.573238372802734 31.49999237060547 5.573238372802734 Z" stroke="none" fill="#fff"/>
    </g>
    <path id="Polygon_2" data-name="Polygon 2" d="M17.043,1.386a5,5,0,0,1,4.913,0l.46.259A5,5,0,0,1,19.96,11H19.04a5,5,0,0,1-2.457-9.355Z" transform="translate(441 685) rotate(180)" fill="#fff"/>
  </g>
</svg>
