<svg xmlns="http://www.w3.org/2000/svg" xmlns:xlink="http://www.w3.org/1999/xlink" width="335.977" height="260.562" viewBox="0 0 335.977 260.562">
  <defs>
    <filter id="Ellipse_14" x="0" y="0" width="236.06" height="236.06" filterUnits="userSpaceOnUse">
      <feOffset dx="10" dy="-4" input="SourceAlpha"/>
      <feGaussianBlur stdDeviation="7.5" result="blur"/>
      <feFlood flood-opacity="0.161"/>
      <feComposite operator="in" in2="blur"/>
      <feComposite in="SourceGraphic"/>
    </filter>
    <filter id="Ellipse_13" x="68.337" y="55.468" width="205.094" height="205.094" filterUnits="userSpaceOnUse">
      <feOffset dy="3" input="SourceAlpha"/>
      <feGaussianBlur stdDeviation="3" result="blur-2"/>
      <feFlood flood-opacity="0.161"/>
      <feComposite operator="in" in2="blur-2"/>
      <feComposite in="SourceGraphic"/>
    </filter>
    <filter id="Ellipse_12" x="126.917" y="48.993" width="209.06" height="209.06" filterUnits="userSpaceOnUse">
      <feOffset dy="3" input="SourceAlpha"/>
      <feGaussianBlur stdDeviation="3" result="blur-3"/>
      <feFlood flood-opacity="0.161"/>
      <feComposite operator="in" in2="blur-3"/>
      <feComposite in="SourceGraphic"/>
    </filter>
  </defs>
  <g id="Group_13" data-name="Group 13" transform="translate(-1565.5 -3020.5)">
    <g transform="matrix(1, 0, 0, 1, 1565.5, 3020.5)" filter="url(#Ellipse_14)">
      <circle id="Ellipse_14-2" data-name="Ellipse 14" cx="78" cy="78" r="78" transform="matrix(-0.97, -0.26, 0.26, -0.97, 163.18, 217.56)" fill="#fff"/>
    </g>
    <g transform="matrix(1, 0, 0, 1, 1565.5, 3020.5)" filter="url(#Ellipse_13)">
      <circle id="Ellipse_13-2" data-name="Ellipse 13" cx="78" cy="78" r="78" transform="matrix(-0.97, -0.22, 0.22, -0.97, 229.34, 248.56)" fill="#1a481d"/>
    </g>
    <g transform="matrix(1, 0, 0, 1, 1565.5, 3020.5)" filter="url(#Ellipse_12)">
      <circle id="Ellipse_12-2" data-name="Ellipse 12" cx="78" cy="78" r="78" transform="matrix(-0.97, -0.26, 0.26, -0.97, 286.6, 246.05)" fill="#fff"/>
    </g>
  </g>
</svg>
